<?xml version="1.0" standalone="no"?>
<!DOCTYPE svg PUBLIC "-//W3C//DTD SVG 20010904//EN"
 "http://www.w3.org/TR/2001/REC-SVG-20010904/DTD/svg10.dtd">
<svg version="1.0" xmlns="http://www.w3.org/2000/svg"
 width="178.000000pt" height="178.000000pt" viewBox="0 0 178.000000 178.000000"
 preserveAspectRatio="xMidYMid meet">
<metadata>
Created by potrace 1.11, written by Peter Selinger 2001-2013
</metadata>
<g transform="translate(0.000000,178.000000) scale(0.100000,-0.100000)"
fill="#000000" stroke="none">
<path d="M1125 1739 c-70 -24 -57 -23 -168 -14 -338 27 -669 -162 -827 -472
-167 -325 -104 -734 152 -992 271 -272 670 -337 1014 -163 272 137 456 431
467 747 2 57 -18 200 -37 263 -45 149 -114 263 -227 373 -79 77 -166 137 -256
175 -35 15 -63 31 -63 36 0 5 7 22 15 38 19 36 14 37 -70 9z m-272 -128 c-39
-27 -85 -67 -102 -88 -100 -121 -99 -265 2 -386 l40 -49 -76 -76 c-41 -43
-103 -106 -137 -142 -34 -36 -95 -100 -136 -142 -41 -42 -74 -81 -74 -86 0 -5
32 -39 71 -76 l70 -66 100 102 c54 56 102 98 106 94 26 -26 423 -408 477 -459
36 -34 66 -65 66 -68 0 -8 -90 -47 -149 -65 -184 -54 -380 -34 -565 57 -215
106 -355 289 -422 549 -63 250 58 590 271 760 138 110 313 179 477 188 l52 3
-71 -50z m497 -101 c245 -166 385 -502 326 -782 -19 -87 -39 -145 -77 -221
-34 -67 -118 -187 -131 -187 -4 0 -29 21 -56 48 -26 26 -96 93 -155 149 l-108
101 35 12 c151 50 306 164 358 263 28 53 34 170 12 225 -49 124 -131 202 -231
218 -26 4 -75 -4 -160 -25 -132 -34 -172 -37 -206 -20 -70 37 -40 115 65 169
25 14 47 38 69 77 50 89 42 86 124 48 40 -18 101 -52 135 -75z m-70 -465 c42
-51 -21 -142 -104 -149 -5 -1 -34 -43 -65 -95 l-54 -94 -84 87 c-47 47 -83 90
-81 95 2 5 30 37 62 71 55 57 66 64 140 85 45 13 90 25 101 27 25 5 70 -9 85
-27z"/>
</g>
</svg>
